<mxfile host="app.diagrams.net" modified="2022-07-15T10:02:33.196Z" agent="5.0 (Windows NT 10.0; Win64; x64) AppleWebKit/537.36 (KHTML, like Gecko) Chrome/103.0.0.0 Safari/537.36" etag="d7A0K-67neCWg5X74vae" version="18.0.7" type="github">
  <diagram id="_1yi99HODvwLNVEbN80R" name="Page-1">
    <mxGraphModel dx="1865" dy="539" grid="1" gridSize="10" guides="1" tooltips="1" connect="1" arrows="1" fold="1" page="1" pageScale="1" pageWidth="827" pageHeight="1169" math="0" shadow="0">
      <root>
        <mxCell id="0" />
        <mxCell id="1" parent="0" />
        <mxCell id="jHShUy1M93uFHqez85aA-23" value="" style="rounded=0;whiteSpace=wrap;html=1;fontFamily=Comic Sans MS;sketch=1;" parent="1" vertex="1">
          <mxGeometry x="70" y="210" width="1370" height="760" as="geometry" />
        </mxCell>
        <mxCell id="jHShUy1M93uFHqez85aA-71" value="Azure Cloud" style="text;html=1;strokeColor=none;fillColor=none;align=center;verticalAlign=middle;whiteSpace=wrap;rounded=0;fontSize=15;fontStyle=1;fontFamily=Comic Sans MS;sketch=1;" parent="1" vertex="1">
          <mxGeometry x="70" y="180" width="120" height="30" as="geometry" />
        </mxCell>
        <mxCell id="jHShUy1M93uFHqez85aA-79" value="Azure Express Route" style="aspect=fixed;html=1;points=[];align=center;image;fontSize=12;image=img/lib/azure2/networking/ExpressRoute_Circuits.svg;fontFamily=Comic Sans MS;sketch=1;" parent="1" vertex="1">
          <mxGeometry x="650" y="1046" width="70" height="64" as="geometry" />
        </mxCell>
        <mxCell id="jHShUy1M93uFHqez85aA-81" value="" style="group;sketch=1;" parent="1" vertex="1" connectable="0">
          <mxGeometry x="400" y="720" width="490" height="190" as="geometry" />
        </mxCell>
        <mxCell id="jHShUy1M93uFHqez85aA-42" value="" style="rounded=0;whiteSpace=wrap;html=1;fillColor=#f5f5f5;fontColor=#333333;strokeColor=#666666;fontFamily=Comic Sans MS;sketch=1;" parent="jHShUy1M93uFHqez85aA-81" vertex="1">
          <mxGeometry y="26.120000000000005" width="490" height="163.88" as="geometry" />
        </mxCell>
        <mxCell id="jHShUy1M93uFHqez85aA-43" value="" style="aspect=fixed;html=1;points=[];align=center;image;fontSize=12;image=img/lib/azure2/networking/Virtual_Networks.svg;rounded=0;fontFamily=Comic Sans MS;sketch=1;" parent="jHShUy1M93uFHqez85aA-81" vertex="1">
          <mxGeometry width="26.341463414634145" height="15.726829268292683" as="geometry" />
        </mxCell>
        <mxCell id="jHShUy1M93uFHqez85aA-80" value="Check Piont" style="aspect=fixed;html=1;points=[];align=center;image;fontSize=12;image=img/lib/azure2/networking/Firewalls.svg;fontFamily=Comic Sans MS;sketch=1;" parent="jHShUy1M93uFHqez85aA-81" vertex="1">
          <mxGeometry x="209.5" y="78.05999999999995" width="71" height="60" as="geometry" />
        </mxCell>
        <mxCell id="jHShUy1M93uFHqez85aA-163" value="vnet-afn-eas-prd-hub-01" style="text;html=1;strokeColor=none;fillColor=none;align=center;verticalAlign=middle;whiteSpace=wrap;rounded=0;fontFamily=Comic Sans MS;fontSize=15;fontStyle=0;sketch=1;" parent="jHShUy1M93uFHqez85aA-81" vertex="1">
          <mxGeometry x="12" y="-9.14" width="216" height="30" as="geometry" />
        </mxCell>
        <mxCell id="jHShUy1M93uFHqez85aA-130" value="" style="endArrow=none;html=1;fontFamily=Comic Sans MS;fontSize=12;curved=1;dashed=1;sketch=1;" parent="jHShUy1M93uFHqez85aA-81" edge="1">
          <mxGeometry width="50" height="50" relative="1" as="geometry">
            <mxPoint x="357" y="8.360000000000014" as="sourcePoint" />
            <mxPoint x="717" y="8.360000000000014" as="targetPoint" />
          </mxGeometry>
        </mxCell>
        <mxCell id="jHShUy1M93uFHqez85aA-70" value="" style="rounded=0;whiteSpace=wrap;html=1;fontFamily=Comic Sans MS;sketch=1;" parent="1" vertex="1">
          <mxGeometry x="70" y="1200" width="1160" height="190" as="geometry" />
        </mxCell>
        <mxCell id="jHShUy1M93uFHqez85aA-74" value="On-Premise" style="text;html=1;strokeColor=none;fillColor=none;align=center;verticalAlign=middle;whiteSpace=wrap;rounded=0;fontFamily=Comic Sans MS;fontSize=15;fontStyle=1;sketch=1;" parent="1" vertex="1">
          <mxGeometry x="70" y="1169" width="100" height="30" as="geometry" />
        </mxCell>
        <mxCell id="jHShUy1M93uFHqez85aA-87" value="&lt;font style=&quot;font-size: 11px;&quot;&gt;SQLSERVER&lt;br style=&quot;font-size: 11px;&quot;&gt;&lt;span style=&quot;background-color: rgb(179, 179, 179);&quot;&gt;MOSQLPRD1&lt;br&gt;&lt;/span&gt;(10.10.1.88)&lt;br&gt;&lt;/font&gt;" style="verticalLabelPosition=bottom;aspect=fixed;html=1;verticalAlign=top;strokeColor=none;align=center;outlineConnect=0;shape=mxgraph.citrix.database_server;fontFamily=Comic Sans MS;fontSize=15;sketch=0;" parent="1" vertex="1">
          <mxGeometry x="140" y="1223" width="80" height="90" as="geometry" />
        </mxCell>
        <mxCell id="jHShUy1M93uFHqez85aA-88" value="&lt;font style=&quot;font-size: 12px;&quot;&gt;SQLSERVER&lt;br&gt;&lt;span style=&quot;background-color: rgb(179, 179, 179);&quot;&gt;HKSQLVS1&lt;br&gt;&lt;/span&gt;(10.10.1.80)&lt;br&gt;&lt;/font&gt;" style="verticalLabelPosition=bottom;aspect=fixed;html=1;verticalAlign=top;strokeColor=none;align=center;outlineConnect=0;shape=mxgraph.citrix.database_server;fontFamily=Comic Sans MS;fontSize=15;sketch=0;" parent="1" vertex="1">
          <mxGeometry x="367" y="1223" width="80" height="90" as="geometry" />
        </mxCell>
        <mxCell id="jHShUy1M93uFHqez85aA-91" value="&lt;font style=&quot;font-size: 12px;&quot;&gt;Control-M&lt;br&gt;&lt;span style=&quot;background-color: rgb(179, 179, 179);&quot;&gt;HKGCTRLMAGPRD01&lt;br&gt;&lt;/span&gt;(10.10.2.67)&lt;br&gt;&lt;/font&gt;" style="verticalLabelPosition=bottom;aspect=fixed;html=1;verticalAlign=top;strokeColor=none;align=center;outlineConnect=0;shape=mxgraph.citrix.command_center;fontFamily=Comic Sans MS;fontSize=15;sketch=0;" parent="1" vertex="1">
          <mxGeometry x="610" y="1220" width="75.5" height="96" as="geometry" />
        </mxCell>
        <mxCell id="jHShUy1M93uFHqez85aA-93" value="&lt;font style=&quot;font-size: 12px;&quot;&gt;SMB Mounting Folder&lt;br&gt;&lt;span style=&quot;background-color: rgb(179, 179, 179);&quot;&gt;\\eaant2\ProdApps\AIDS&lt;br&gt;&lt;/span&gt;(10.10.1.12)&lt;br&gt;&lt;/font&gt;" style="verticalLabelPosition=bottom;aspect=fixed;html=1;verticalAlign=top;strokeColor=none;align=center;outlineConnect=0;shape=mxgraph.citrix.file_server;fontFamily=Comic Sans MS;fontSize=15;sketch=0;" parent="1" vertex="1">
          <mxGeometry x="870" y="1220" width="71" height="97" as="geometry" />
        </mxCell>
        <mxCell id="jHShUy1M93uFHqez85aA-94" value="MQ" style="outlineConnect=0;fontColor=#232F3E;gradientColor=none;fillColor=#B0084D;strokeColor=none;dashed=0;verticalLabelPosition=bottom;verticalAlign=top;align=center;html=1;fontSize=12;fontStyle=0;aspect=fixed;pointerEvents=1;shape=mxgraph.aws4.mq_broker;fontFamily=Comic Sans MS;sketch=0;" parent="1" vertex="1">
          <mxGeometry x="1090" y="1239" width="78" height="78" as="geometry" />
        </mxCell>
        <mxCell id="jHShUy1M93uFHqez85aA-105" value="" style="endArrow=classic;html=1;fontFamily=Comic Sans MS;fontSize=15;curved=1;exitX=0.041;exitY=0.989;exitDx=0;exitDy=0;exitPerimeter=0;fillColor=#d5e8d4;strokeColor=#82b366;sketch=1;" parent="1" source="jHShUy1M93uFHqez85aA-80" target="jHShUy1M93uFHqez85aA-88" edge="1">
          <mxGeometry width="50" height="50" relative="1" as="geometry">
            <mxPoint x="310" y="900" as="sourcePoint" />
            <mxPoint x="360" y="850" as="targetPoint" />
          </mxGeometry>
        </mxCell>
        <mxCell id="jHShUy1M93uFHqez85aA-121" value="Access port (1433) from WEASDMSPRDWS01" style="edgeLabel;html=1;align=center;verticalAlign=middle;resizable=0;points=[];fontSize=12;fontFamily=Comic Sans MS;labelBackgroundColor=default;labelBorderColor=none;sketch=1;" parent="jHShUy1M93uFHqez85aA-105" vertex="1" connectable="0">
          <mxGeometry x="-0.0609" y="3" relative="1" as="geometry">
            <mxPoint x="-332" y="1" as="offset" />
          </mxGeometry>
        </mxCell>
        <mxCell id="jHShUy1M93uFHqez85aA-106" value="" style="endArrow=classic;html=1;fontFamily=Comic Sans MS;fontSize=15;curved=1;exitX=-0.015;exitY=0.642;exitDx=0;exitDy=0;exitPerimeter=0;fillColor=#d5e8d4;strokeColor=#82b366;sketch=1;" parent="1" source="jHShUy1M93uFHqez85aA-80" target="jHShUy1M93uFHqez85aA-87" edge="1">
          <mxGeometry width="50" height="50" relative="1" as="geometry">
            <mxPoint x="370" y="1080" as="sourcePoint" />
            <mxPoint x="420" y="1030" as="targetPoint" />
          </mxGeometry>
        </mxCell>
        <mxCell id="jHShUy1M93uFHqez85aA-108" value="" style="endArrow=classic;html=1;fontFamily=Comic Sans MS;fontSize=15;curved=1;exitX=0.931;exitY=0.949;exitDx=0;exitDy=0;exitPerimeter=0;fillColor=#d5e8d4;strokeColor=#82b366;strokeWidth=2;sketch=1;" parent="1" source="jHShUy1M93uFHqez85aA-80" target="jHShUy1M93uFHqez85aA-93" edge="1">
          <mxGeometry width="50" height="50" relative="1" as="geometry">
            <mxPoint x="880" y="1070" as="sourcePoint" />
            <mxPoint x="930" y="1020" as="targetPoint" />
          </mxGeometry>
        </mxCell>
        <mxCell id="jHShUy1M93uFHqez85aA-109" value="" style="endArrow=classic;html=1;fontFamily=Comic Sans MS;fontSize=15;curved=1;exitX=0.987;exitY=0.376;exitDx=0;exitDy=0;exitPerimeter=0;fillColor=#d5e8d4;strokeColor=#82b366;strokeWidth=2;sketch=1;" parent="1" source="jHShUy1M93uFHqez85aA-80" target="jHShUy1M93uFHqez85aA-94" edge="1">
          <mxGeometry width="50" height="50" relative="1" as="geometry">
            <mxPoint x="1010" y="860" as="sourcePoint" />
            <mxPoint x="1060" y="810" as="targetPoint" />
          </mxGeometry>
        </mxCell>
        <mxCell id="jHShUy1M93uFHqez85aA-56" value="" style="rounded=0;whiteSpace=wrap;html=1;fillColor=#f5f5f5;fontColor=#333333;strokeColor=#666666;fontFamily=Comic Sans MS;sketch=1;" parent="1" vertex="1">
          <mxGeometry x="180" y="320.12" width="940" height="319.88" as="geometry" />
        </mxCell>
        <mxCell id="jHShUy1M93uFHqez85aA-57" value="" style="aspect=fixed;html=1;points=[];align=center;image;fontSize=12;image=img/lib/azure2/networking/Virtual_Networks.svg;rounded=0;fontFamily=Comic Sans MS;sketch=1;" parent="1" vertex="1">
          <mxGeometry x="180" y="290" width="26.341463414634145" height="15.726829268292683" as="geometry" />
        </mxCell>
        <mxCell id="jHShUy1M93uFHqez85aA-115" value="&lt;span&gt;&lt;span&gt;vnet-hkg-eas-prd-shared-01 (10.155.XXX.XXX/16)&lt;/span&gt;&lt;/span&gt;" style="text;html=1;strokeColor=none;fillColor=none;align=center;verticalAlign=middle;whiteSpace=wrap;rounded=0;fontFamily=Comic Sans MS;fontSize=15;fontStyle=0;sketch=1;" parent="1" vertex="1">
          <mxGeometry x="193" y="280.86" width="397" height="30" as="geometry" />
        </mxCell>
        <mxCell id="jHShUy1M93uFHqez85aA-122" value="" style="endArrow=none;html=1;fontFamily=Comic Sans MS;fontSize=12;curved=1;dashed=1;sketch=1;" parent="1" edge="1">
          <mxGeometry width="50" height="50" relative="1" as="geometry">
            <mxPoint x="60" y="1054" as="sourcePoint" />
            <mxPoint x="514" y="1054" as="targetPoint" />
          </mxGeometry>
        </mxCell>
        <mxCell id="jHShUy1M93uFHqez85aA-123" value="" style="endArrow=none;html=1;fontFamily=Comic Sans MS;fontSize=12;curved=1;dashed=1;sketch=1;" parent="1" edge="1">
          <mxGeometry width="50" height="50" relative="1" as="geometry">
            <mxPoint x="-15" y="1143" as="sourcePoint" />
            <mxPoint x="304" y="1143" as="targetPoint" />
          </mxGeometry>
        </mxCell>
        <mxCell id="jHShUy1M93uFHqez85aA-110" value="" style="shape=flexArrow;endArrow=classic;startArrow=classic;html=1;fontFamily=Comic Sans MS;fontSize=15;curved=1;sketch=1;" parent="1" edge="1">
          <mxGeometry width="100" height="100" relative="1" as="geometry">
            <mxPoint x="610" y="1190" as="sourcePoint" />
            <mxPoint x="610" y="980" as="targetPoint" />
          </mxGeometry>
        </mxCell>
        <mxCell id="jHShUy1M93uFHqez85aA-124" value="" style="endArrow=none;html=1;fontFamily=Comic Sans MS;fontSize=12;curved=1;dashed=1;sketch=1;" parent="1" edge="1">
          <mxGeometry width="50" height="50" relative="1" as="geometry">
            <mxPoint x="790" y="1060" as="sourcePoint" />
            <mxPoint x="1260" y="1060" as="targetPoint" />
          </mxGeometry>
        </mxCell>
        <mxCell id="jHShUy1M93uFHqez85aA-126" value="" style="endArrow=none;html=1;fontFamily=Comic Sans MS;fontSize=12;curved=1;dashed=1;sketch=1;" parent="1" edge="1">
          <mxGeometry width="50" height="50" relative="1" as="geometry">
            <mxPoint x="998" y="1145" as="sourcePoint" />
            <mxPoint x="1360" y="1145" as="targetPoint" />
          </mxGeometry>
        </mxCell>
        <mxCell id="jHShUy1M93uFHqez85aA-127" value="Access&amp;nbsp; port (139,445) from HKG-DMS-ASK-PRD-01" style="edgeLabel;html=1;align=center;verticalAlign=middle;resizable=0;points=[];fontSize=12;fontFamily=Comic Sans MS;labelBackgroundColor=default;labelBorderColor=none;sketch=1;" parent="1" vertex="1" connectable="0">
          <mxGeometry x="1110.001847216309" y="1040.003669738508" as="geometry" />
        </mxCell>
        <mxCell id="jHShUy1M93uFHqez85aA-128" value="" style="endArrow=classic;html=1;fontFamily=Comic Sans MS;fontSize=12;curved=1;fillColor=#f8cecc;strokeColor=#b85450;strokeWidth=2;sketch=1;" parent="1" source="jHShUy1M93uFHqez85aA-91" edge="1">
          <mxGeometry width="50" height="50" relative="1" as="geometry">
            <mxPoint x="590" y="1130" as="sourcePoint" />
            <mxPoint x="650" y="890" as="targetPoint" />
          </mxGeometry>
        </mxCell>
        <mxCell id="jHShUy1M93uFHqez85aA-131" value="Access port (8080,8082) from HKGCTRLMAGPRD01&lt;br&gt;Access port (80) from Internal Network by User" style="edgeLabel;html=1;align=right;verticalAlign=middle;resizable=0;points=[];fontSize=12;fontFamily=Comic Sans MS;labelBackgroundColor=default;labelBorderColor=none;sketch=1;" parent="1" vertex="1" connectable="0">
          <mxGeometry x="1230.001847216309" y="1078.003669738508" as="geometry">
            <mxPoint x="-113" y="-371" as="offset" />
          </mxGeometry>
        </mxCell>
        <mxCell id="jHShUy1M93uFHqez85aA-134" value="" style="aspect=fixed;html=1;points=[];align=center;image;fontSize=12;image=img/lib/azure2/networking/Network_Security_Groups.svg;labelBackgroundColor=#B3B3B3;labelBorderColor=none;fontFamily=Comic Sans MS;sketch=1;" parent="1" vertex="1">
          <mxGeometry x="1100" y="610" width="44.37" height="53.88" as="geometry" />
        </mxCell>
        <mxCell id="jHShUy1M93uFHqez85aA-136" value="" style="aspect=fixed;html=1;points=[];align=center;image;fontSize=12;image=img/lib/azure2/networking/Network_Security_Groups.svg;labelBackgroundColor=#B3B3B3;labelBorderColor=none;fontFamily=Comic Sans MS;sketch=1;" parent="1" vertex="1">
          <mxGeometry x="860" y="870" width="49.42" height="60" as="geometry" />
        </mxCell>
        <mxCell id="jHShUy1M93uFHqez85aA-138" value="" style="rounded=0;whiteSpace=wrap;html=1;fontFamily=Comic Sans MS;sketch=1;" parent="1" vertex="1">
          <mxGeometry x="800" y="400" width="290" height="196.12" as="geometry" />
        </mxCell>
        <mxCell id="jHShUy1M93uFHqez85aA-59" value="" style="rounded=0;whiteSpace=wrap;html=1;fontFamily=Comic Sans MS;sketch=1;" parent="1" vertex="1">
          <mxGeometry x="206.34" y="400" width="253.66" height="196.12" as="geometry" />
        </mxCell>
        <mxCell id="jHShUy1M93uFHqez85aA-112" value="WEASDMSPRDWS01" style="aspect=fixed;html=1;points=[];align=center;image;fontSize=12;image=img/lib/azure2/compute/Virtual_Machine.svg;fontFamily=Comic Sans MS;sketch=1;" parent="1" vertex="1">
          <mxGeometry x="300" y="440" width="69" height="64" as="geometry" />
        </mxCell>
        <mxCell id="jHShUy1M93uFHqez85aA-114" value="AKS-HKG-EAS-PRD-CORPORATE-01" style="aspect=fixed;html=1;points=[];align=center;image;fontSize=12;image=img/lib/azure2/compute/Kubernetes_Services.svg;fontFamily=Comic Sans MS;sketch=1;" parent="1" vertex="1">
          <mxGeometry x="930" y="440" width="68" height="60" as="geometry" />
        </mxCell>
        <mxCell id="jHShUy1M93uFHqez85aA-135" value="" style="aspect=fixed;html=1;points=[];align=center;image;fontSize=12;image=img/lib/azure2/networking/Network_Security_Groups.svg;labelBackgroundColor=#B3B3B3;labelBorderColor=none;fontFamily=Comic Sans MS;sketch=1;" parent="1" vertex="1">
          <mxGeometry x="199" y="570" width="32.94" height="40" as="geometry" />
        </mxCell>
        <mxCell id="jHShUy1M93uFHqez85aA-107" value="" style="endArrow=classic;html=1;fontFamily=Comic Sans MS;fontSize=15;curved=1;entryX=0.863;entryY=-0.078;entryDx=0;entryDy=0;entryPerimeter=0;fillColor=#d5e8d4;strokeColor=#82b366;strokeWidth=2;sketch=1;" parent="1" target="jHShUy1M93uFHqez85aA-80" edge="1">
          <mxGeometry width="50" height="50" relative="1" as="geometry">
            <mxPoint x="880" y="550" as="sourcePoint" />
            <mxPoint x="910" y="630" as="targetPoint" />
          </mxGeometry>
        </mxCell>
        <mxCell id="jHShUy1M93uFHqez85aA-129" value="" style="endArrow=classic;html=1;fontFamily=Comic Sans MS;fontSize=12;curved=1;fillColor=#f8cecc;strokeColor=#b85450;strokeWidth=2;exitX=0.592;exitY=0.329;exitDx=0;exitDy=0;exitPerimeter=0;sketch=1;" parent="1" source="jHShUy1M93uFHqez85aA-42" edge="1">
          <mxGeometry width="50" height="50" relative="1" as="geometry">
            <mxPoint x="700" y="790" as="sourcePoint" />
            <mxPoint x="920" y="540" as="targetPoint" />
          </mxGeometry>
        </mxCell>
        <mxCell id="jHShUy1M93uFHqez85aA-101" value="" style="endArrow=classic;html=1;fontFamily=Comic Sans MS;fontSize=15;curved=1;fillColor=#d5e8d4;strokeColor=#82b366;strokeWidth=2;exitX=0.309;exitY=0.906;exitDx=0;exitDy=0;exitPerimeter=0;sketch=1;" parent="1" source="jHShUy1M93uFHqez85aA-56" edge="1">
          <mxGeometry width="50" height="50" relative="1" as="geometry">
            <mxPoint x="637.2690292525863" y="596.1199999999999" as="sourcePoint" />
            <mxPoint x="650" y="790" as="targetPoint" />
          </mxGeometry>
        </mxCell>
        <mxCell id="jHShUy1M93uFHqez85aA-140" value="&lt;span&gt;snet-hkg-dms-eas-prd-aks-01&lt;br&gt;(10.155.56.0/21)&lt;/span&gt;" style="text;html=1;strokeColor=none;fillColor=none;align=left;verticalAlign=middle;whiteSpace=wrap;rounded=0;fontFamily=Comic Sans MS;fontSize=15;fontStyle=0;sketch=1;" parent="1" vertex="1">
          <mxGeometry x="797" y="360" width="270" height="30" as="geometry" />
        </mxCell>
        <mxCell id="jHShUy1M93uFHqez85aA-144" value="" style="aspect=fixed;html=1;points=[];align=center;image;fontSize=12;image=img/lib/azure2/networking/Network_Security_Groups.svg;labelBackgroundColor=#B3B3B3;labelBorderColor=none;fontFamily=Comic Sans MS;sketch=1;" parent="1" vertex="1">
          <mxGeometry x="790" y="567.88" width="32.94" height="40" as="geometry" />
        </mxCell>
        <mxCell id="jHShUy1M93uFHqez85aA-145" value="" style="rounded=0;whiteSpace=wrap;html=1;labelBackgroundColor=#B3B3B3;labelBorderColor=none;fontFamily=Comic Sans MS;fontSize=12;shadow=1;sketch=1;" parent="1" vertex="1">
          <mxGeometry x="67" y="1454" width="290" height="130" as="geometry" />
        </mxCell>
        <mxCell id="jHShUy1M93uFHqez85aA-146" value="" style="endArrow=classic;html=1;fontFamily=Comic Sans MS;fontSize=12;strokeWidth=2;curved=1;fillColor=#fff2cc;strokeColor=#d6b656;sketch=1;" parent="1" edge="1">
          <mxGeometry width="50" height="50" relative="1" as="geometry">
            <mxPoint x="117" y="1490" as="sourcePoint" />
            <mxPoint x="157" y="1490" as="targetPoint" />
          </mxGeometry>
        </mxCell>
        <mxCell id="jHShUy1M93uFHqez85aA-147" value="Cloud to Cloud" style="text;html=1;strokeColor=none;fillColor=none;align=center;verticalAlign=middle;whiteSpace=wrap;rounded=0;labelBackgroundColor=none;labelBorderColor=none;fontFamily=Comic Sans MS;fontSize=12;sketch=1;" parent="1" vertex="1">
          <mxGeometry x="185" y="1473" width="91" height="30" as="geometry" />
        </mxCell>
        <mxCell id="jHShUy1M93uFHqez85aA-148" value="" style="endArrow=classic;html=1;fontFamily=Comic Sans MS;fontSize=12;strokeWidth=2;curved=1;fillColor=#d5e8d4;strokeColor=#82b366;sketch=1;" parent="1" edge="1">
          <mxGeometry width="50" height="50" relative="1" as="geometry">
            <mxPoint x="117" y="1521" as="sourcePoint" />
            <mxPoint x="157" y="1521" as="targetPoint" />
          </mxGeometry>
        </mxCell>
        <mxCell id="jHShUy1M93uFHqez85aA-149" value="Cloud to On-Premise" style="text;html=1;strokeColor=none;fillColor=none;align=center;verticalAlign=middle;whiteSpace=wrap;rounded=0;labelBackgroundColor=none;labelBorderColor=none;fontFamily=Comic Sans MS;fontSize=12;sketch=1;" parent="1" vertex="1">
          <mxGeometry x="187" y="1504" width="120" height="30" as="geometry" />
        </mxCell>
        <mxCell id="jHShUy1M93uFHqez85aA-150" value="" style="endArrow=classic;html=1;fontFamily=Comic Sans MS;fontSize=12;strokeWidth=2;curved=1;fillColor=#f8cecc;strokeColor=#b85450;sketch=1;" parent="1" edge="1">
          <mxGeometry width="50" height="50" relative="1" as="geometry">
            <mxPoint x="116" y="1555" as="sourcePoint" />
            <mxPoint x="156" y="1555" as="targetPoint" />
          </mxGeometry>
        </mxCell>
        <mxCell id="jHShUy1M93uFHqez85aA-151" value="On-Premise to Cloud" style="text;html=1;strokeColor=none;fillColor=none;align=center;verticalAlign=middle;whiteSpace=wrap;rounded=0;labelBackgroundColor=none;labelBorderColor=none;fontFamily=Comic Sans MS;fontSize=12;sketch=1;" parent="1" vertex="1">
          <mxGeometry x="186" y="1538" width="121" height="30" as="geometry" />
        </mxCell>
        <mxCell id="jHShUy1M93uFHqez85aA-156" value="" style="rounded=0;whiteSpace=wrap;html=1;labelBackgroundColor=none;labelBorderColor=none;fontFamily=Comic Sans MS;fontSize=12;fontColor=default;dashed=1;sketch=1;" parent="1" vertex="1">
          <mxGeometry x="1222" y="400" width="160" height="530" as="geometry" />
        </mxCell>
        <mxCell id="jHShUy1M93uFHqez85aA-155" value="Mointir" style="aspect=fixed;html=1;points=[];align=center;image;fontSize=12;image=img/lib/azure2/monitor/SAP_Azure_Monitor.svg;labelBackgroundColor=none;labelBorderColor=none;fontFamily=Comic Sans MS;sketch=1;" parent="1" vertex="1">
          <mxGeometry x="1264" y="440" width="70" height="56.00000000000001" as="geometry" />
        </mxCell>
        <mxCell id="jHShUy1M93uFHqez85aA-154" value="DNS" style="aspect=fixed;html=1;points=[];align=center;image;fontSize=12;image=img/lib/azure2/networking/DNS_Zones.svg;labelBackgroundColor=none;labelBorderColor=none;fontFamily=Comic Sans MS;sketch=1;" parent="1" vertex="1">
          <mxGeometry x="1270" y="555.88" width="64" height="64" as="geometry" />
        </mxCell>
        <mxCell id="jHShUy1M93uFHqez85aA-157" value="Common Service" style="text;html=1;strokeColor=none;fillColor=none;align=center;verticalAlign=middle;whiteSpace=wrap;rounded=0;dashed=1;labelBackgroundColor=none;labelBorderColor=none;fontFamily=Comic Sans MS;fontSize=12;fontColor=default;sketch=1;" parent="1" vertex="1">
          <mxGeometry x="1213" y="366" width="110" height="30" as="geometry" />
        </mxCell>
        <mxCell id="jHShUy1M93uFHqez85aA-162" value="&lt;span&gt;snet-hkg-dms-eas-prd-app-01&lt;br&gt;(10.155.11.240/28)&lt;/span&gt;" style="text;html=1;strokeColor=none;fillColor=none;align=left;verticalAlign=middle;whiteSpace=wrap;rounded=0;fontFamily=Comic Sans MS;fontSize=15;fontStyle=0;sketch=1;" parent="1" vertex="1">
          <mxGeometry x="206.34" y="360" width="243.66" height="30" as="geometry" />
        </mxCell>
        <mxCell id="jHShUy1M93uFHqez85aA-143" value="" style="endArrow=classic;html=1;fontFamily=Comic Sans MS;fontSize=12;strokeWidth=2;curved=1;fillColor=#fff2cc;strokeColor=#d6b656;sketch=1;" parent="1" edge="1">
          <mxGeometry width="50" height="50" relative="1" as="geometry">
            <mxPoint x="840" y="450" as="sourcePoint" />
            <mxPoint x="380" y="460" as="targetPoint" />
            <Array as="points">
              <mxPoint x="940" y="460" />
              <mxPoint x="530" y="410" />
            </Array>
          </mxGeometry>
        </mxCell>
        <mxCell id="jHShUy1M93uFHqez85aA-166" value="" style="endArrow=none;html=1;fontFamily=Comic Sans MS;fontSize=12;curved=1;dashed=1;sketch=1;" parent="1" edge="1">
          <mxGeometry width="50" height="50" relative="1" as="geometry">
            <mxPoint x="690" y="430" as="sourcePoint" />
            <mxPoint x="770" y="260" as="targetPoint" />
          </mxGeometry>
        </mxCell>
        <mxCell id="jHShUy1M93uFHqez85aA-167" value="" style="endArrow=none;html=1;fontFamily=Comic Sans MS;fontSize=12;curved=1;dashed=1;sketch=1;" parent="1" edge="1">
          <mxGeometry width="50" height="50" relative="1" as="geometry">
            <mxPoint x="770" y="260" as="sourcePoint" />
            <mxPoint x="1334" y="260" as="targetPoint" />
          </mxGeometry>
        </mxCell>
        <mxCell id="jHShUy1M93uFHqez85aA-168" value="Access port (80) from AKS-HKG-EAS-PRD-CORPORTATE-01" style="edgeLabel;html=1;align=center;verticalAlign=middle;resizable=0;points=[];fontSize=12;fontFamily=Comic Sans MS;labelBackgroundColor=default;labelBorderColor=none;sketch=1;" parent="1" vertex="1" connectable="0">
          <mxGeometry x="1280.001847216309" y="613.883669738508" as="geometry">
            <mxPoint x="-113" y="-371" as="offset" />
          </mxGeometry>
        </mxCell>
        <mxCell id="jHShUy1M93uFHqez85aA-172" value="Container Registry" style="aspect=fixed;html=1;points=[];align=center;image;fontSize=12;image=img/lib/azure2/containers/Container_Registries.svg;shadow=1;dashed=1;labelBackgroundColor=none;labelBorderColor=none;fontFamily=Comic Sans MS;fontColor=default;sketch=1;" parent="1" vertex="1">
          <mxGeometry x="1266" y="676" width="68" height="61" as="geometry" />
        </mxCell>
        <mxCell id="jHShUy1M93uFHqez85aA-173" value="Storage Account" style="aspect=fixed;html=1;points=[];align=center;image;fontSize=12;image=img/lib/azure2/storage/Storage_Accounts.svg;shadow=1;dashed=1;labelBackgroundColor=none;labelBorderColor=none;fontFamily=Comic Sans MS;fontColor=default;sketch=1;" parent="1" vertex="1">
          <mxGeometry x="1270" y="806" width="65" height="52" as="geometry" />
        </mxCell>
        <mxCell id="Gq7MJxhWNbvMgg8RjQqV-1" value="Access port (1433) from WEASDMSPRDWS01" style="edgeLabel;html=1;align=center;verticalAlign=middle;resizable=0;points=[];fontSize=12;fontFamily=Comic Sans MS;labelBackgroundColor=default;labelBorderColor=none;sketch=1;" parent="1" vertex="1" connectable="0">
          <mxGeometry x="120.00184721630882" y="1120.003669738508" as="geometry" />
        </mxCell>
        <mxCell id="Gq7MJxhWNbvMgg8RjQqV-2" value="Access port (unknow) from WEASDMSPRDWS01" style="edgeLabel;html=1;align=center;verticalAlign=middle;resizable=0;points=[];fontSize=12;fontFamily=Comic Sans MS;labelBackgroundColor=default;labelBorderColor=none;sketch=1;" parent="1" vertex="1" connectable="0">
          <mxGeometry x="1222.0018472163088" y="1126.003669738508" as="geometry" />
        </mxCell>
        <mxCell id="iHFx-w9J1aIRynhjewf0-3" value="" style="endArrow=classic;html=1;rounded=0;entryX=0;entryY=0.5;entryDx=0;entryDy=0;exitX=1;exitY=0.68;exitDx=0;exitDy=0;exitPerimeter=0;curved=1;sketch=1;fillColor=#f8cecc;strokeColor=#b85450;strokeWidth=2;" edge="1" parent="1" target="jHShUy1M93uFHqez85aA-42">
          <mxGeometry width="50" height="50" relative="1" as="geometry">
            <mxPoint x="-175" y="832.8399999999999" as="sourcePoint" />
            <mxPoint x="-40" y="800" as="targetPoint" />
          </mxGeometry>
        </mxCell>
        <mxCell id="iHFx-w9J1aIRynhjewf0-5" value="User" style="shape=umlActor;verticalLabelPosition=bottom;verticalAlign=top;html=1;outlineConnect=0;labelBackgroundColor=#FFFFFF;sketch=1;" vertex="1" parent="1">
          <mxGeometry x="-240" y="798" width="30" height="60" as="geometry" />
        </mxCell>
      </root>
    </mxGraphModel>
  </diagram>
</mxfile>
